<svg xmlns="http://www.w3.org/2000/svg" width="96" height="96" viewBox="0 0 96 96" version="1.1"><path d="M 11 10.500 C 11 10.775, 11.225 11, 11.500 11 C 11.775 11, 12 10.775, 12 10.500 C 12 10.225, 11.775 10, 11.500 10 C 11.225 10, 11 10.225, 11 10.500 M 84 10.500 C 84 10.775, 84.225 11, 84.500 11 C 84.775 11, 85 10.775, 85 10.500 C 85 10.225, 84.775 10, 84.500 10 C 84.225 10, 84 10.225, 84 10.500 M 14 11.500 C 14 11.775, 14.225 12, 14.500 12 C 14.775 12, 15 11.775, 15 11.500 C 15 11.225, 14.775 11, 14.500 11 C 14.225 11, 14 11.225, 14 11.500 M 81 11.500 C 81 11.775, 81.225 12, 81.500 12 C 81.775 12, 82 11.775, 82 11.500 C 82 11.225, 81.775 11, 81.500 11 C 81.225 11, 81 11.225, 81 11.500 M 16 12.500 C 16 12.775, 16.225 13, 16.500 13 C 16.775 13, 17 12.775, 17 12.500 C 17 12.225, 16.775 12, 16.500 12 C 16.225 12, 16 12.225, 16 12.500 M 79 12.500 C 79 12.775, 79.225 13, 79.500 13 C 79.775 13, 80 12.775, 80 12.500 C 80 12.225, 79.775 12, 79.500 12 C 79.225 12, 79 12.225, 79 12.500 M 10 14.500 C 10 14.775, 10.225 15, 10.500 15 C 10.775 15, 11 14.775, 11 14.500 C 11 14.225, 10.775 14, 10.500 14 C 10.225 14, 10 14.225, 10 14.500 M 19 14.500 C 19 14.775, 19.225 15, 19.500 15 C 19.775 15, 20 14.775, 20 14.500 C 20 14.225, 19.775 14, 19.500 14 C 19.225 14, 19 14.225, 19 14.500 M 76 14.500 C 76 14.775, 76.225 15, 76.500 15 C 76.775 15, 77 14.775, 77 14.500 C 77 14.225, 76.775 14, 76.500 14 C 76.225 14, 76 14.225, 76 14.500 M 85 14.500 C 85 14.775, 85.225 15, 85.500 15 C 85.775 15, 86 14.775, 86 14.500 C 86 14.225, 85.775 14, 85.500 14 C 85.225 14, 85 14.225, 85 14.500 M 20 16.500 C 20 16.775, 20.225 17, 20.500 17 C 20.775 17, 21 16.775, 21 16.500 C 21 16.225, 20.775 16, 20.500 16 C 20.225 16, 20 16.225, 20 16.500 M 75 16.500 C 75 16.775, 75.225 17, 75.500 17 C 75.775 17, 76 16.775, 76 16.500 C 76 16.225, 75.775 16, 75.500 16 C 75.225 16, 75 16.225, 75 16.500 M 19 18.500 C 19 18.775, 19.225 19, 19.500 19 C 19.775 19, 20 18.775, 20 18.500 C 20 18.225, 19.775 18, 19.500 18 C 19.225 18, 19 18.225, 19 18.500 M 76 18.500 C 76 18.775, 76.225 19, 76.500 19 C 76.775 19, 77 18.775, 77 18.500 C 77 18.225, 76.775 18, 76.500 18 C 76.225 18, 76 18.225, 76 18.500 M 18.079 24.583 C 18.127 25.748, 18.364 25.985, 18.683 25.188 C 18.972 24.466, 18.936 23.603, 18.604 23.271 C 18.272 22.939, 18.036 23.529, 18.079 24.583 M 77 24 C 77 24.733, 77.300 25.033, 77.667 24.667 C 78.033 24.300, 78.033 23.700, 77.667 23.333 C 77.300 22.967, 77 23.267, 77 24 M 81 26.500 C 81 26.775, 81.225 27, 81.500 27 C 81.775 27, 82 26.775, 82 26.500 C 82 26.225, 81.775 26, 81.500 26 C 81.225 26, 81 26.225, 81 26.500 M 15 28.500 C 15 28.775, 15.225 29, 15.500 29 C 15.775 29, 16 28.775, 16 28.500 C 16 28.225, 15.775 28, 15.500 28 C 15.225 28, 15 28.225, 15 28.500 M 16 30.500 C 16 30.775, 16.225 31, 16.500 31 C 16.775 31, 17 30.775, 17 30.500 C 17 30.225, 16.775 30, 16.500 30 C 16.225 30, 16 30.225, 16 30.500 M 79 30.500 C 79 30.775, 79.225 31, 79.500 31 C 79.775 31, 80 30.775, 80 30.500 C 80 30.225, 79.775 30, 79.500 30 C 79.225 30, 79 30.225, 79 30.500 M 19 32 C 19 32.733, 19.300 33.033, 19.667 32.667 C 20.033 32.300, 20.033 31.700, 19.667 31.333 C 19.300 30.967, 19 31.267, 19 32 M 76 32 C 76 32.733, 76.300 33.033, 76.667 32.667 C 77.033 32.300, 77.033 31.700, 76.667 31.333 C 76.300 30.967, 76 31.267, 76 32 M 18 34.500 C 18 34.775, 18.225 35, 18.500 35 C 18.775 35, 19 34.775, 19 34.500 C 19 34.225, 18.775 34, 18.500 34 C 18.225 34, 18 34.225, 18 34.500 M 77 34.500 C 77 34.775, 77.225 35, 77.500 35 C 77.775 35, 78 34.775, 78 34.500 C 78 34.225, 77.775 34, 77.500 34 C 77.225 34, 77 34.225, 77 34.500 M 30.872 55.750 C 29.629 57.336, 29.664 57.371, 31.250 56.128 C 32.916 54.821, 33.445 54, 32.622 54 C 32.415 54, 31.627 54.788, 30.872 55.750 M 37 54.378 C 37 54.585, 37.788 55.373, 38.750 56.128 C 40.336 57.371, 40.371 57.336, 39.128 55.750 C 37.821 54.084, 37 53.555, 37 54.378 M 56.872 55.750 C 55.629 57.336, 55.664 57.371, 57.250 56.128 C 58.212 55.373, 59 54.585, 59 54.378 C 59 53.555, 58.179 54.084, 56.872 55.750 M 63 54.378 C 63 54.585, 63.788 55.373, 64.750 56.128 C 66.336 57.371, 66.371 57.336, 65.128 55.750 C 63.821 54.084, 63 53.555, 63 54.378 M 19 61.500 C 19 61.775, 19.225 62, 19.500 62 C 19.775 62, 20 61.775, 20 61.500 C 20 61.225, 19.775 61, 19.500 61 C 19.225 61, 19 61.225, 19 61.500 M 30 61.378 C 30 61.585, 30.788 62.373, 31.750 63.128 C 33.336 64.371, 33.371 64.336, 32.128 62.750 C 30.821 61.084, 30 60.555, 30 61.378 M 37.872 62.750 C 36.629 64.336, 36.664 64.371, 38.250 63.128 C 39.212 62.373, 40 61.585, 40 61.378 C 40 60.555, 39.179 61.084, 37.872 62.750 M 56 61.378 C 56 61.585, 56.788 62.373, 57.750 63.128 C 59.336 64.371, 59.371 64.336, 58.128 62.750 C 56.821 61.084, 56 60.555, 56 61.378 M 63.872 62.750 C 62.629 64.336, 62.664 64.371, 64.250 63.128 C 65.213 62.373, 66 61.585, 66 61.378 C 66 60.555, 65.179 61.084, 63.872 62.750 M 76 61.500 C 76 61.775, 76.225 62, 76.500 62 C 76.775 62, 77 61.775, 77 61.500 C 77 61.225, 76.775 61, 76.500 61 C 76.225 61, 76 61.225, 76 61.500 M 18 63.500 C 18 63.775, 18.225 64, 18.500 64 C 18.775 64, 19 63.775, 19 63.500 C 19 63.225, 18.775 63, 18.500 63 C 18.225 63, 18 63.225, 18 63.500 M 77 63.500 C 77 63.775, 77.225 64, 77.500 64 C 77.775 64, 78 63.775, 78 63.500 C 78 63.225, 77.775 63, 77.500 63 C 77.225 63, 77 63.225, 77 63.500 M 45.750 68.009 L 48 70.444 50.250 68.009 L 52.500 65.574 50.250 67.442 C 48.053 69.266, 47.947 69.266, 45.750 67.442 L 43.500 65.574 45.750 68.009 M 18 71.500 C 18 71.775, 18.225 72, 18.500 72 C 18.775 72, 19 71.775, 19 71.500 C 19 71.225, 18.775 71, 18.500 71 C 18.225 71, 18 71.225, 18 71.500 M 46.474 73.042 C 46.032 73.757, 44.443 74.009, 42.435 73.683 C 38.257 73.005, 35.770 75.271, 38.870 76.930 C 41.263 78.211, 44.985 78.296, 46.855 77.111 C 47.625 76.623, 49.350 76.672, 50.855 77.224 C 53.986 78.374, 59.392 76.675, 58.747 74.744 C 58.515 74.051, 56.598 73.472, 54.415 73.437 C 52.262 73.403, 49.758 73.035, 48.851 72.619 C 47.887 72.177, 46.900 72.353, 46.474 73.042 M 19 73.500 C 19 73.775, 19.225 74, 19.500 74 C 19.775 74, 20 73.775, 20 73.500 C 20 73.225, 19.775 73, 19.500 73 C 19.225 73, 19 73.225, 19 73.500 M 76 73.500 C 76 73.775, 76.225 74, 76.500 74 C 76.775 74, 77 73.775, 77 73.500 C 77 73.225, 76.775 73, 76.500 73 C 76.225 73, 76 73.225, 76 73.500" stroke="none" fill="#c68e02" fill-rule="evenodd"/><path d="M 34.446 57.087 C 33.416 58.755, 35.733 60.667, 37.113 59.287 C 38.267 58.133, 37.545 56, 36 56 C 35.515 56, 34.816 56.489, 34.446 57.087 M 58.446 57.087 C 57.416 58.755, 59.733 60.667, 61.113 59.287 C 62.267 58.133, 61.545 56, 60 56 C 59.515 56, 58.816 56.489, 58.446 57.087" stroke="none" fill="#dadfe1" fill-rule="evenodd"/><path d="M 19.035 62.934 C 17.673 65.480, 17.723 69.297, 19.161 72.453 C 20.560 75.524, 21.383 75.617, 24 73 C 26.393 70.607, 26.588 66.285, 24.443 63.223 C 22.527 60.486, 20.406 60.373, 19.035 62.934 M 71.557 63.223 C 68.879 67.046, 69.968 73.006, 73.599 74.400 C 75.847 75.262, 77.929 72.300, 77.968 68.184 C 78.031 61.599, 74.570 58.921, 71.557 63.223" stroke="none" fill="#ff5722" fill-rule="evenodd"/><path d="M 10.024 11.275 C 10.094 14.782, 12.466 22.079, 15.675 28.660 C 17.658 32.726, 19.432 35.901, 19.618 35.715 C 19.804 35.529, 19.550 32.878, 19.053 29.825 C 18.236 24.803, 18.800 18.751, 20.314 16.301 C 20.916 15.327, 17.208 12.790, 12.651 11.057 C 10.676 10.306, 10.006 10.362, 10.024 11.275 M 80.187 12.594 C 75.489 14.935, 75.122 15.359, 76.140 17.262 C 77.359 19.540, 77.559 28.181, 76.503 32.987 C 75.453 37.768, 76.533 36.549, 80.259 28.750 C 83.558 21.844, 86.720 11.386, 85.789 10.456 C 85.549 10.216, 83.028 11.178, 80.187 12.594 M 31.655 55.829 C 29.504 58.206, 29.560 60.291, 31.829 62.345 C 34.206 64.496, 36.291 64.440, 38.345 62.171 C 40.496 59.794, 40.440 57.709, 38.171 55.655 C 35.794 53.504, 33.709 53.560, 31.655 55.829 M 57.655 55.829 C 55.504 58.206, 55.560 60.291, 57.829 62.345 C 60.206 64.496, 62.291 64.440, 64.345 62.171 C 66.496 59.794, 66.440 57.709, 64.171 55.655 C 61.794 53.504, 59.709 53.560, 57.655 55.829 M 34.446 57.087 C 33.416 58.755, 35.733 60.667, 37.113 59.287 C 38.267 58.133, 37.545 56, 36 56 C 35.515 56, 34.816 56.489, 34.446 57.087 M 58.446 57.087 C 57.416 58.755, 59.733 60.667, 61.113 59.287 C 62.267 58.133, 61.545 56, 60 56 C 59.515 56, 58.816 56.489, 58.446 57.087 M 46.286 67.714 C 47.905 69.333, 48.095 69.333, 49.714 67.714 C 51.333 66.095, 51.238 66, 48 66 C 44.762 66, 44.667 66.095, 46.286 67.714" stroke="none" fill="#454e47" fill-rule="evenodd"/><path d="M 20.035 17.934 C 17.645 22.400, 19.494 36.768, 22.929 40.425 L 25.108 42.744 23.180 48.622 C 20.258 57.532, 19.778 61, 21.468 61 C 23.517 61, 26 64.983, 26 68.270 C 26 70.007, 25.027 71.997, 23.474 73.437 L 20.947 75.778 24.224 78.547 C 30.878 84.171, 35.422 85.500, 48 85.500 C 60.578 85.500, 65.122 84.171, 71.776 78.547 L 75.053 75.778 72.526 73.437 C 70.973 71.997, 70 70.007, 70 68.270 C 70 64.983, 72.483 61, 74.532 61 C 76.222 61, 75.742 57.532, 72.820 48.622 L 70.892 42.744 73.071 40.425 C 76.778 36.478, 78.422 21.298, 75.559 17.441 C 74.183 15.586, 73.850 15.765, 68.022 21.500 C 64.668 24.800, 60.929 28.959, 59.712 30.743 L 57.500 33.986 48 33.976 L 38.500 33.965 36.248 30.733 C 33.506 26.798, 22.964 16, 21.863 16 C 21.427 16, 20.605 16.870, 20.035 17.934 M 31.200 55.200 C 30.540 55.860, 30 57.570, 30 59 C 30 62.305, 31.695 64, 35 64 C 38.305 64, 40 62.305, 40 59 C 40 55.695, 38.305 54, 35 54 C 33.570 54, 31.860 54.540, 31.200 55.200 M 57.200 55.200 C 56.540 55.860, 56 57.570, 56 59 C 56 62.305, 57.695 64, 61 64 C 62.430 64, 64.140 63.460, 64.800 62.800 C 65.460 62.140, 66 60.430, 66 59 C 66 55.695, 64.305 54, 61 54 C 59.570 54, 57.860 54.540, 57.200 55.200 M 45.778 68.222 L 48 70.444 50.222 68.222 L 52.444 66 48 66 L 43.556 66 45.778 68.222 M 46.474 73.042 C 46.032 73.757, 44.443 74.009, 42.435 73.683 C 38.257 73.005, 35.770 75.271, 38.870 76.930 C 41.263 78.211, 44.985 78.296, 46.855 77.111 C 47.625 76.623, 49.350 76.672, 50.855 77.224 C 53.986 78.374, 59.392 76.675, 58.747 74.744 C 58.515 74.051, 56.598 73.472, 54.415 73.437 C 52.262 73.403, 49.758 73.035, 48.851 72.619 C 47.887 72.177, 46.900 72.353, 46.474 73.042" stroke="none" fill="#f9bb06" fill-rule="evenodd"/></svg>